<svg xmlns="http://www.w3.org/2000/svg" xmlns:xlink="http://www.w3.org/1999/xlink" width="6615" zoomAndPan="magnify" viewBox="0 0 4961.25 1647.749934" height="2197" preserveAspectRatio="xMidYMid meet" version="1.0"><defs><clipPath id="8610c48d62"><path d="M 0 0 L 4960.5 0 L 4960.5 1647.5 L 0 1647.5 Z M 0 0 " clip-rule="nonzero"/></clipPath></defs><path fill="#19252c" d="M 4750.738281 926.996094 C 4700.398438 926.996094 4649.515625 911.675781 4606.839844 881.035156 C 4597.539062 874.46875 4590.972656 862.429688 4590.972656 849.300781 C 4590.972656 827.414062 4608.480469 810.453125 4630.367188 810.453125 C 4641.308594 810.453125 4648.96875 814.28125 4654.441406 818.113281 C 4683.4375 839.453125 4715.171875 852.582031 4752.378906 852.582031 C 4786.847656 852.582031 4807.640625 838.902344 4807.640625 816.472656 L 4807.640625 815.378906 C 4807.640625 794.039062 4794.507812 783.097656 4730.492188 766.683594 C 4653.34375 746.984375 4603.554688 725.644531 4603.554688 649.59375 L 4603.554688 648.5 C 4603.554688 579.011719 4659.363281 533.050781 4737.605469 533.050781 C 4784.113281 533.050781 4824.601562 545.089844 4859.070312 566.976562 C 4868.371094 572.445312 4877.671875 583.9375 4877.671875 600.351562 C 4877.671875 622.234375 4860.164062 639.199219 4838.28125 639.199219 C 4830.074219 639.199219 4823.507812 637.007812 4816.941406 633.179688 C 4789.035156 616.765625 4762.773438 607.464844 4736.511719 607.464844 C 4704.230469 607.464844 4687.269531 622.234375 4687.269531 640.839844 L 4687.269531 641.933594 C 4687.269531 667.101562 4703.683594 675.308594 4769.886719 692.269531 C 4847.582031 712.515625 4891.351562 740.417969 4891.351562 807.171875 L 4891.351562 808.265625 C 4891.351562 884.316406 4833.355469 926.996094 4750.738281 926.996094 Z M 4750.738281 926.996094 " fill-opacity="1" fill-rule="nonzero"/><path fill="#19252c" d="M 4356.910156 882.675781 L 4356.910156 616.21875 L 4275.933594 616.21875 C 4254.597656 616.21875 4237.085938 598.710938 4237.085938 577.371094 C 4237.085938 556.03125 4254.597656 538.523438 4275.933594 538.523438 L 4522.148438 538.523438 C 4543.488281 538.523438 4560.996094 556.03125 4560.996094 577.371094 C 4560.996094 598.710938 4543.488281 616.21875 4522.148438 616.21875 L 4441.171875 616.21875 L 4441.171875 882.675781 C 4441.171875 906.203125 4422.570312 924.804688 4399.042969 924.804688 C 4375.515625 924.804688 4356.910156 906.203125 4356.910156 882.675781 Z M 4356.910156 882.675781 " fill-opacity="1" fill-rule="nonzero"/><path fill="#19252c" d="M 3835.464844 883.222656 L 3835.464844 578.464844 C 3835.464844 554.9375 3854.070312 536.335938 3877.597656 536.335938 L 3886.351562 536.335938 C 3906.59375 536.335938 3918.632812 546.183594 3930.121094 560.957031 L 4092.621094 774.339844 L 4092.621094 576.824219 C 4092.621094 553.84375 4111.226562 535.242188 4134.207031 535.242188 C 4157.183594 535.242188 4175.789062 553.84375 4175.789062 576.824219 L 4175.789062 881.582031 C 4175.789062 905.109375 4157.183594 923.710938 4133.65625 923.710938 L 4130.921875 923.710938 C 4110.679688 923.710938 4098.640625 913.863281 4087.152344 899.089844 L 3918.632812 678.042969 L 3918.632812 883.222656 C 3918.632812 906.203125 3900.027344 924.804688 3877.046875 924.804688 C 3854.070312 924.804688 3835.464844 906.203125 3835.464844 883.222656 Z M 3835.464844 883.222656 " fill-opacity="1" fill-rule="nonzero"/><path fill="#19252c" d="M 3511.050781 921.523438 C 3487.523438 921.523438 3468.921875 902.917969 3468.921875 879.394531 L 3468.921875 580.652344 C 3468.921875 557.125 3487.523438 538.523438 3511.050781 538.523438 L 3723.339844 538.523438 C 3744.132812 538.523438 3761.09375 555.484375 3761.09375 576.277344 C 3761.09375 597.066406 3744.132812 613.480469 3723.339844 613.480469 L 3552.632812 613.480469 L 3552.632812 691.175781 L 3698.71875 691.175781 C 3719.511719 691.175781 3736.472656 708.136719 3736.472656 728.929688 C 3736.472656 749.71875 3719.511719 766.132812 3698.71875 766.132812 L 3552.632812 766.132812 L 3552.632812 846.5625 L 3726.078125 846.5625 C 3746.867188 846.5625 3763.828125 863.527344 3763.828125 884.316406 C 3763.828125 905.109375 3746.867188 921.523438 3726.078125 921.523438 Z M 3511.050781 921.523438 " fill-opacity="1" fill-rule="nonzero"/><path fill="#19252c" d="M 3224.257812 928.089844 C 3104.980469 928.089844 3022.910156 844.375 3022.910156 731.117188 L 3022.910156 730.023438 C 3022.910156 621.140625 3107.714844 531.957031 3223.710938 531.957031 C 3281.707031 531.957031 3320.007812 545.089844 3354.476562 569.164062 C 3362.683594 575.183594 3371.984375 586.671875 3371.984375 603.085938 C 3371.984375 626.066406 3353.382812 644.667969 3330.402344 644.667969 C 3318.363281 644.667969 3310.703125 640.292969 3304.6875 635.914062 C 3281.707031 619.5 3257.085938 609.652344 3220.972656 609.652344 C 3159.695312 609.652344 3110.996094 663.820312 3110.996094 728.929688 L 3110.996094 730.023438 C 3110.996094 800.058594 3159.144531 851.488281 3226.992188 851.488281 C 3257.632812 851.488281 3284.988281 843.828125 3306.328125 828.507812 L 3306.328125 773.792969 L 3249.425781 773.792969 C 3229.179688 773.792969 3212.765625 757.925781 3212.765625 737.683594 C 3212.765625 717.4375 3229.179688 701.023438 3249.425781 701.023438 L 3345.722656 701.023438 C 3369.25 701.023438 3387.851562 719.628906 3387.851562 743.15625 L 3387.851562 836.167969 C 3387.851562 860.789062 3378.550781 877.75 3358.304688 889.789062 C 3327.117188 908.9375 3281.707031 928.089844 3224.257812 928.089844 Z M 3224.257812 928.089844 " fill-opacity="1" fill-rule="nonzero"/><path fill="#19252c" d="M 2644.46875 882.675781 L 2644.46875 580.652344 C 2644.46875 557.125 2663.070312 538.523438 2686.597656 538.523438 L 2819.554688 538.523438 C 2868.25 538.523438 2906.003906 552.203125 2931.171875 577.371094 C 2952.507812 598.710938 2964 628.800781 2964 664.914062 L 2964 666.007812 C 2964 726.191406 2933.90625 763.398438 2887.398438 782.546875 L 2945.941406 853.675781 C 2954.152344 864.074219 2959.621094 872.828125 2959.621094 885.957031 C 2959.621094 909.484375 2939.925781 924.804688 2919.679688 924.804688 C 2900.53125 924.804688 2887.945312 915.503906 2878.097656 902.917969 L 2796.027344 798.964844 L 2728.726562 798.964844 L 2728.726562 882.675781 C 2728.726562 906.203125 2710.125 924.804688 2686.597656 924.804688 C 2663.070312 924.804688 2644.46875 906.203125 2644.46875 882.675781 Z M 2728.726562 724.550781 L 2814.082031 724.550781 C 2855.117188 724.550781 2878.644531 702.667969 2878.644531 670.382812 L 2878.644531 669.289062 C 2878.644531 633.179688 2853.476562 614.578125 2812.441406 614.578125 L 2728.726562 614.578125 Z M 2728.726562 724.550781 " fill-opacity="1" fill-rule="nonzero"/><path fill="#19252c" d="M 2320.058594 921.523438 C 2296.53125 921.523438 2277.929688 902.917969 2277.929688 879.394531 L 2277.929688 580.652344 C 2277.929688 557.125 2296.53125 538.523438 2320.058594 538.523438 L 2532.351562 538.523438 C 2553.140625 538.523438 2570.101562 555.484375 2570.101562 576.277344 C 2570.101562 597.066406 2553.140625 613.480469 2532.351562 613.480469 L 2361.640625 613.480469 L 2361.640625 691.175781 L 2507.726562 691.175781 C 2528.519531 691.175781 2545.480469 708.136719 2545.480469 728.929688 C 2545.480469 749.71875 2528.519531 766.132812 2507.726562 766.132812 L 2361.640625 766.132812 L 2361.640625 846.5625 L 2535.085938 846.5625 C 2555.878906 846.5625 2572.839844 863.527344 2572.839844 884.316406 C 2572.839844 905.109375 2555.878906 921.523438 2535.085938 921.523438 Z M 2320.058594 921.523438 " fill-opacity="1" fill-rule="nonzero"/><path fill="#19252c" d="M 2030.84375 927.542969 C 2007.863281 927.542969 1991.996094 914.957031 1983.242188 894.164062 L 1859.039062 597.066406 C 1856.304688 590.5 1854.113281 583.9375 1854.113281 576.824219 C 1854.113281 553.296875 1872.71875 535.242188 1896.246094 535.242188 C 1918.128906 535.242188 1932.355469 547.824219 1938.921875 564.785156 L 2034.671875 812.640625 L 2131.515625 562.050781 C 2136.988281 548.371094 2151.761719 535.242188 2172.003906 535.242188 C 2194.984375 535.242188 2213.585938 552.75 2213.585938 575.730469 C 2213.585938 582.292969 2211.398438 589.40625 2209.210938 594.332031 L 2083.914062 894.164062 C 2075.160156 914.957031 2059.292969 927.542969 2036.3125 927.542969 Z M 2030.84375 927.542969 " fill-opacity="1" fill-rule="nonzero"/><path fill="#19252c" d="M 1700.953125 882.675781 L 1700.953125 577.371094 C 1700.953125 553.84375 1719.558594 535.242188 1743.085938 535.242188 C 1766.613281 535.242188 1785.214844 553.84375 1785.214844 577.371094 L 1785.214844 882.675781 C 1785.214844 906.203125 1766.613281 924.804688 1743.085938 924.804688 C 1719.558594 924.804688 1700.953125 906.203125 1700.953125 882.675781 Z M 1700.953125 882.675781 " fill-opacity="1" fill-rule="nonzero"/><path fill="#19252c" d="M 1269.136719 879.394531 L 1269.136719 580.652344 C 1269.136719 557.125 1287.738281 538.523438 1311.265625 538.523438 L 1418.503906 538.523438 C 1538.875 538.523438 1622.042969 621.140625 1622.042969 728.929688 L 1622.042969 730.023438 C 1622.042969 837.808594 1538.875 921.523438 1418.503906 921.523438 L 1311.265625 921.523438 C 1287.738281 921.523438 1269.136719 902.917969 1269.136719 879.394531 Z M 1353.394531 845.46875 L 1418.503906 845.46875 C 1487.445312 845.46875 1533.953125 798.964844 1533.953125 731.117188 L 1533.953125 730.023438 C 1533.953125 662.175781 1487.445312 614.578125 1418.503906 614.578125 L 1353.394531 614.578125 Z M 1353.394531 845.46875 " fill-opacity="1" fill-rule="nonzero"/><path fill="#19252c" d="M 4770.621094 1280.746094 L 4721.015625 1143 C 4720.574219 1141.667969 4720.128906 1140.339844 4720.128906 1139.011719 C 4720.128906 1134.359375 4724.335938 1130.152344 4729.210938 1130.152344 C 4733.636719 1130.152344 4736.960938 1133.476562 4738.289062 1137.460938 L 4781.03125 1260.59375 L 4821.558594 1137.019531 C 4822.886719 1133.03125 4825.546875 1130.152344 4830.195312 1130.152344 L 4831.304688 1130.152344 C 4835.734375 1130.152344 4838.613281 1133.03125 4839.941406 1137.019531 L 4880.46875 1260.59375 L 4923.429688 1137.019531 C 4924.761719 1133.03125 4927.640625 1130.152344 4931.847656 1130.152344 C 4936.5 1130.152344 4940.707031 1134.359375 4940.707031 1138.789062 C 4940.707031 1140.117188 4940.042969 1141.667969 4939.597656 1143 L 4889.992188 1280.746094 C 4888.441406 1285.175781 4885.339844 1288.277344 4880.910156 1288.277344 L 4879.582031 1288.277344 C 4875.152344 1288.277344 4872.050781 1285.175781 4870.503906 1280.746094 L 4830.195312 1161.601562 L 4790.113281 1280.746094 C 4788.5625 1285.175781 4785.460938 1288.277344 4781.03125 1288.277344 L 4779.703125 1288.277344 C 4775.273438 1288.277344 4772.171875 1285.398438 4770.621094 1280.746094 Z M 4770.621094 1280.746094 " fill-opacity="1" fill-rule="nonzero"/><path fill="#19252c" d="M 4621.0625 1288.941406 C 4573.894531 1288.941406 4542.222656 1251.957031 4542.222656 1209.214844 L 4542.222656 1208.773438 C 4542.222656 1166.03125 4574.335938 1128.601562 4621.507812 1128.601562 C 4668.679688 1128.601562 4700.347656 1165.585938 4700.347656 1208.328125 L 4700.347656 1208.773438 C 4700.347656 1251.515625 4668.234375 1288.941406 4621.0625 1288.941406 Z M 4621.507812 1272.773438 C 4656.941406 1272.773438 4682.1875 1244.425781 4682.1875 1209.214844 L 4682.1875 1208.773438 C 4682.1875 1173.558594 4656.5 1144.769531 4621.0625 1144.769531 C 4585.628906 1144.769531 4560.382812 1173.117188 4560.382812 1208.328125 L 4560.382812 1208.773438 C 4560.382812 1243.984375 4586.074219 1272.773438 4621.507812 1272.773438 Z M 4621.507812 1272.773438 " fill-opacity="1" fill-rule="nonzero"/><path fill="#19252c" d="M 4389.042969 1278.53125 L 4389.042969 1140.117188 C 4389.042969 1135.246094 4393.03125 1131.261719 4397.679688 1131.261719 L 4455.703125 1131.261719 C 4474.75 1131.261719 4490.03125 1137.019531 4499.773438 1146.761719 C 4507.304688 1154.292969 4511.734375 1165.144531 4511.734375 1177.324219 L 4511.734375 1177.769531 C 4511.734375 1203.234375 4494.460938 1218.074219 4470.320312 1222.722656 L 4508.855469 1272.332031 C 4510.625 1274.324219 4511.734375 1276.316406 4511.734375 1278.753906 C 4511.734375 1283.40625 4507.304688 1287.390625 4502.875 1287.390625 C 4499.332031 1287.390625 4496.675781 1285.398438 4494.679688 1282.742188 L 4451.054688 1226.046875 L 4406.539062 1226.046875 L 4406.539062 1278.53125 C 4406.539062 1283.40625 4402.550781 1287.390625 4397.679688 1287.390625 C 4393.03125 1287.390625 4389.042969 1283.40625 4389.042969 1278.53125 Z M 4406.539062 1210.324219 L 4454.152344 1210.324219 C 4477.40625 1210.324219 4494.015625 1198.363281 4494.015625 1178.433594 L 4494.015625 1177.988281 C 4494.015625 1158.945312 4479.398438 1147.425781 4454.375 1147.425781 L 4406.539062 1147.425781 Z M 4406.539062 1210.324219 " fill-opacity="1" fill-rule="nonzero"/><path fill="#19252c" d="M 4287.351562 1288.941406 C 4238.632812 1288.941406 4208.511719 1253.507812 4208.511719 1209.214844 L 4208.511719 1208.773438 C 4208.511719 1166.25 4239.738281 1128.601562 4286.246094 1128.601562 C 4309.722656 1128.601562 4325 1134.804688 4339.175781 1145.210938 C 4341.167969 1146.761719 4342.71875 1149.199219 4342.71875 1152.300781 C 4342.71875 1157.171875 4338.730469 1161.15625 4334.082031 1161.15625 C 4332.089844 1161.15625 4330.316406 1160.273438 4328.546875 1158.945312 C 4317.472656 1150.527344 4305.070312 1144.769531 4285.582031 1144.769531 C 4251.253906 1144.769531 4226.671875 1173.78125 4226.671875 1208.328125 L 4226.671875 1208.773438 C 4226.671875 1245.757812 4250.367188 1273.21875 4288.019531 1273.21875 C 4305.734375 1273.21875 4322.121094 1266.351562 4332.753906 1257.714844 L 4332.753906 1219.179688 L 4291.117188 1219.179688 C 4286.910156 1219.179688 4283.367188 1215.636719 4283.367188 1211.429688 C 4283.367188 1207 4286.910156 1203.457031 4291.117188 1203.457031 L 4340.945312 1203.457031 C 4345.597656 1203.457031 4349.585938 1207.445312 4349.585938 1212.316406 L 4349.585938 1259.488281 C 4349.585938 1263.695312 4347.589844 1267.460938 4343.605469 1270.117188 C 4329.429688 1280.527344 4310.386719 1288.941406 4287.351562 1288.941406 Z M 4287.351562 1288.941406 " fill-opacity="1" fill-rule="nonzero"/><path fill="#19252c" d="M 4032.800781 1288.941406 C 3985.628906 1288.941406 3953.960938 1251.957031 3953.960938 1209.214844 L 3953.960938 1208.773438 C 3953.960938 1166.03125 3986.074219 1128.601562 4033.246094 1128.601562 C 4080.417969 1128.601562 4112.085938 1165.585938 4112.085938 1208.328125 L 4112.085938 1208.773438 C 4112.085938 1251.515625 4079.972656 1288.941406 4032.800781 1288.941406 Z M 4033.246094 1272.773438 C 4068.679688 1272.773438 4093.925781 1244.425781 4093.925781 1209.214844 L 4093.925781 1208.773438 C 4093.925781 1173.558594 4068.234375 1144.769531 4032.800781 1144.769531 C 3997.367188 1144.769531 3972.121094 1173.117188 3972.121094 1208.328125 L 3972.121094 1208.773438 C 3972.121094 1243.984375 3997.8125 1272.773438 4033.246094 1272.773438 Z M 4033.246094 1272.773438 " fill-opacity="1" fill-rule="nonzero"/><path fill="#19252c" d="M 3868.789062 1278.53125 L 3868.789062 1147.425781 L 3823.832031 1147.425781 C 3819.402344 1147.425781 3815.636719 1143.882812 3815.636719 1139.453125 C 3815.636719 1135.027344 3819.402344 1131.261719 3823.832031 1131.261719 L 3931.464844 1131.261719 C 3935.890625 1131.261719 3939.65625 1135.027344 3939.65625 1139.453125 C 3939.65625 1143.882812 3935.890625 1147.425781 3931.464844 1147.425781 L 3886.507812 1147.425781 L 3886.507812 1278.53125 C 3886.507812 1283.40625 3882.519531 1287.390625 3877.648438 1287.390625 C 3872.777344 1287.390625 3868.789062 1283.40625 3868.789062 1278.53125 Z M 3868.789062 1278.53125 " fill-opacity="1" fill-rule="nonzero"/><path fill="#19252c" d="M 3652.238281 1278.53125 L 3652.238281 1225.382812 L 3594.660156 1144.769531 C 3593.550781 1143 3592.664062 1141.003906 3592.664062 1138.789062 C 3592.664062 1134.140625 3596.871094 1130.152344 3601.746094 1130.152344 C 3605.511719 1130.152344 3607.945312 1132.367188 3610.160156 1135.46875 L 3661.320312 1209.214844 L 3712.917969 1135.46875 C 3715.132812 1132.367188 3717.347656 1130.152344 3721.113281 1130.152344 C 3725.984375 1130.152344 3729.75 1134.140625 3729.75 1138.789062 C 3729.75 1141.003906 3728.421875 1143.441406 3727.3125 1145.210938 L 3669.957031 1224.9375 L 3669.957031 1278.53125 C 3669.957031 1283.40625 3665.96875 1287.390625 3661.097656 1287.390625 C 3656.226562 1287.390625 3652.238281 1283.40625 3652.238281 1278.53125 Z M 3652.238281 1278.53125 " fill-opacity="1" fill-rule="nonzero"/><path fill="#19252c" d="M 3508.777344 1288.941406 C 3460.054688 1288.941406 3429.9375 1253.507812 3429.9375 1209.214844 L 3429.9375 1208.773438 C 3429.9375 1166.25 3461.164062 1128.601562 3507.667969 1128.601562 C 3531.144531 1128.601562 3546.425781 1134.804688 3560.597656 1145.210938 C 3562.59375 1146.761719 3564.140625 1149.199219 3564.140625 1152.300781 C 3564.140625 1157.171875 3560.15625 1161.15625 3555.503906 1161.15625 C 3553.511719 1161.15625 3551.738281 1160.273438 3549.96875 1158.945312 C 3538.894531 1150.527344 3526.492188 1144.769531 3507.003906 1144.769531 C 3472.679688 1144.769531 3448.097656 1173.78125 3448.097656 1208.328125 L 3448.097656 1208.773438 C 3448.097656 1245.757812 3471.792969 1273.21875 3509.441406 1273.21875 C 3527.15625 1273.21875 3543.546875 1266.351562 3554.175781 1257.714844 L 3554.175781 1219.179688 L 3512.542969 1219.179688 C 3508.332031 1219.179688 3504.789062 1215.636719 3504.789062 1211.429688 C 3504.789062 1207 3508.332031 1203.457031 3512.542969 1203.457031 L 3562.371094 1203.457031 C 3567.019531 1203.457031 3571.007812 1207.445312 3571.007812 1212.316406 L 3571.007812 1259.488281 C 3571.007812 1263.695312 3569.015625 1267.460938 3565.027344 1270.117188 C 3550.855469 1280.527344 3531.808594 1288.941406 3508.777344 1288.941406 Z M 3508.777344 1288.941406 " fill-opacity="1" fill-rule="nonzero"/><path fill="#19252c" d="M 3297.070312 1286.285156 C 3292.421875 1286.285156 3288.433594 1282.296875 3288.433594 1277.425781 L 3288.433594 1140.117188 C 3288.433594 1135.246094 3292.421875 1131.261719 3297.070312 1131.261719 L 3393.40625 1131.261719 C 3397.835938 1131.261719 3401.378906 1134.804688 3401.378906 1139.234375 C 3401.378906 1143.664062 3397.835938 1147.207031 3393.40625 1147.207031 L 3305.929688 1147.207031 L 3305.929688 1200.136719 L 3383.441406 1200.136719 C 3387.871094 1200.136719 3391.414062 1203.898438 3391.414062 1208.109375 C 3391.414062 1212.535156 3387.871094 1216.082031 3383.441406 1216.082031 L 3305.929688 1216.082031 L 3305.929688 1270.339844 L 3394.515625 1270.339844 C 3398.945312 1270.339844 3402.488281 1273.882812 3402.488281 1278.3125 C 3402.488281 1282.742188 3398.945312 1286.285156 3394.515625 1286.285156 Z M 3297.070312 1286.285156 " fill-opacity="1" fill-rule="nonzero"/><path fill="#19252c" d="M 3185.800781 1278.53125 L 3185.800781 1147.425781 L 3140.84375 1147.425781 C 3136.414062 1147.425781 3132.648438 1143.882812 3132.648438 1139.453125 C 3132.648438 1135.027344 3136.414062 1131.261719 3140.84375 1131.261719 L 3248.472656 1131.261719 C 3252.902344 1131.261719 3256.667969 1135.027344 3256.667969 1139.453125 C 3256.667969 1143.882812 3252.902344 1147.425781 3248.472656 1147.425781 L 3203.515625 1147.425781 L 3203.515625 1278.53125 C 3203.515625 1283.40625 3199.53125 1287.390625 3194.660156 1287.390625 C 3189.785156 1287.390625 3185.800781 1283.40625 3185.800781 1278.53125 Z M 3185.800781 1278.53125 " fill-opacity="1" fill-rule="nonzero"/><path fill="#19252c" d="M 2979.566406 1279.417969 C 2979.566406 1278.089844 2979.789062 1276.539062 2980.675781 1274.769531 L 3043.570312 1137.238281 C 3045.785156 1132.367188 3049.105469 1129.488281 3054.640625 1129.488281 L 3055.527344 1129.488281 C 3060.84375 1129.488281 3064.386719 1132.367188 3066.378906 1137.238281 L 3129.273438 1274.546875 C 3129.941406 1276.097656 3130.382812 1277.648438 3130.382812 1278.976562 C 3130.382812 1283.625 3126.617188 1287.390625 3121.96875 1287.390625 C 3117.757812 1287.390625 3114.878906 1284.511719 3113.328125 1280.96875 L 3097.164062 1245.3125 L 3012.121094 1245.3125 L 2995.953125 1281.410156 C 2994.40625 1285.175781 2991.527344 1287.390625 2987.539062 1287.390625 C 2983.109375 1287.390625 2979.566406 1283.847656 2979.566406 1279.417969 Z M 3018.988281 1229.367188 L 3090.296875 1229.367188 L 3054.640625 1150.085938 Z M 3018.988281 1229.367188 " fill-opacity="1" fill-rule="nonzero"/><path fill="#19252c" d="M 2830.15625 1278.53125 L 2830.15625 1140.117188 C 2830.15625 1135.246094 2834.144531 1131.261719 2838.796875 1131.261719 L 2896.816406 1131.261719 C 2915.863281 1131.261719 2931.144531 1137.019531 2940.890625 1146.761719 C 2948.417969 1154.292969 2952.847656 1165.144531 2952.847656 1177.324219 L 2952.847656 1177.769531 C 2952.847656 1203.234375 2935.574219 1218.074219 2911.433594 1222.722656 L 2949.96875 1272.332031 C 2951.742188 1274.324219 2952.847656 1276.316406 2952.847656 1278.753906 C 2952.847656 1283.40625 2948.417969 1287.390625 2943.988281 1287.390625 C 2940.445312 1287.390625 2937.789062 1285.398438 2935.796875 1282.742188 L 2892.167969 1226.046875 L 2847.652344 1226.046875 L 2847.652344 1278.53125 C 2847.652344 1283.40625 2843.667969 1287.390625 2838.796875 1287.390625 C 2834.144531 1287.390625 2830.15625 1283.40625 2830.15625 1278.53125 Z M 2847.652344 1210.324219 L 2895.269531 1210.324219 C 2918.519531 1210.324219 2935.132812 1198.363281 2935.132812 1178.433594 L 2935.132812 1177.988281 C 2935.132812 1158.945312 2920.515625 1147.425781 2895.488281 1147.425781 L 2847.652344 1147.425781 Z M 2847.652344 1210.324219 " fill-opacity="1" fill-rule="nonzero"/><path fill="#19252c" d="M 2727.523438 1278.53125 L 2727.523438 1147.425781 L 2682.566406 1147.425781 C 2678.136719 1147.425781 2674.371094 1143.882812 2674.371094 1139.453125 C 2674.371094 1135.027344 2678.136719 1131.261719 2682.566406 1131.261719 L 2790.195312 1131.261719 C 2794.625 1131.261719 2798.390625 1135.027344 2798.390625 1139.453125 C 2798.390625 1143.882812 2794.625 1147.425781 2790.195312 1147.425781 L 2745.238281 1147.425781 L 2745.238281 1278.53125 C 2745.238281 1283.40625 2741.253906 1287.390625 2736.382812 1287.390625 C 2731.507812 1287.390625 2727.523438 1283.40625 2727.523438 1278.53125 Z M 2727.523438 1278.53125 " fill-opacity="1" fill-rule="nonzero"/><path fill="#19252c" d="M 2601.289062 1288.5 C 2578.699219 1288.5 2559.875 1281.410156 2542.601562 1267.679688 C 2540.609375 1266.351562 2539.28125 1263.917969 2539.28125 1261.039062 C 2539.28125 1256.164062 2543.046875 1252.398438 2547.695312 1252.398438 C 2549.910156 1252.398438 2551.902344 1253.285156 2553.011719 1254.394531 C 2567.628906 1266.796875 2582.242188 1272.773438 2601.953125 1272.773438 C 2622.769531 1272.773438 2636.503906 1261.703125 2636.503906 1246.421875 L 2636.503906 1245.976562 C 2636.503906 1231.582031 2628.75 1223.390625 2596.195312 1216.523438 C 2560.539062 1208.773438 2544.152344 1197.257812 2544.152344 1171.789062 L 2544.152344 1171.34375 C 2544.152344 1146.984375 2565.632812 1129.046875 2595.089844 1129.046875 C 2615.464844 1129.046875 2630.300781 1134.140625 2644.476562 1144.328125 C 2646.246094 1145.65625 2648.238281 1148.089844 2648.238281 1151.414062 C 2648.238281 1156.0625 2644.476562 1159.828125 2639.824219 1159.828125 C 2637.832031 1159.828125 2636.28125 1159.386719 2634.730469 1158.277344 C 2621.664062 1148.757812 2609.039062 1144.769531 2594.644531 1144.769531 C 2574.492188 1144.769531 2561.648438 1155.84375 2561.648438 1169.796875 L 2561.648438 1170.238281 C 2561.648438 1184.855469 2569.621094 1193.046875 2603.726562 1200.355469 C 2638.273438 1207.886719 2654.21875 1220.507812 2654.21875 1244.207031 L 2654.21875 1244.648438 C 2654.21875 1271.226562 2632.074219 1288.5 2601.289062 1288.5 Z M 2601.289062 1288.5 " fill-opacity="1" fill-rule="nonzero"/><path fill="#19252c" d="M 2379.109375 1278.53125 L 2379.109375 1147.425781 L 2334.152344 1147.425781 C 2329.726562 1147.425781 2325.960938 1143.882812 2325.960938 1139.453125 C 2325.960938 1135.027344 2329.726562 1131.261719 2334.152344 1131.261719 L 2441.785156 1131.261719 C 2446.214844 1131.261719 2449.980469 1135.027344 2449.980469 1139.453125 C 2449.980469 1143.882812 2446.214844 1147.425781 2441.785156 1147.425781 L 2396.828125 1147.425781 L 2396.828125 1278.53125 C 2396.828125 1283.40625 2392.839844 1287.390625 2387.96875 1287.390625 C 2383.097656 1287.390625 2379.109375 1283.40625 2379.109375 1278.53125 Z M 2379.109375 1278.53125 " fill-opacity="1" fill-rule="nonzero"/><path fill="#19252c" d="M 2169.882812 1278.53125 L 2169.882812 1139.011719 C 2169.882812 1134.140625 2173.867188 1130.152344 2178.519531 1130.152344 C 2183.390625 1130.152344 2187.375 1134.140625 2187.375 1139.011719 L 2187.375 1200.136719 L 2276.847656 1200.136719 L 2276.847656 1139.011719 C 2276.847656 1134.140625 2280.832031 1130.152344 2285.707031 1130.152344 C 2290.355469 1130.152344 2294.34375 1134.140625 2294.34375 1139.011719 L 2294.34375 1278.53125 C 2294.34375 1283.40625 2290.355469 1287.390625 2285.707031 1287.390625 C 2280.832031 1287.390625 2276.847656 1283.40625 2276.847656 1278.53125 L 2276.847656 1216.523438 L 2187.375 1216.523438 L 2187.375 1278.53125 C 2187.375 1283.40625 2183.390625 1287.390625 2178.519531 1287.390625 C 2173.867188 1287.390625 2169.882812 1283.40625 2169.882812 1278.53125 Z M 2169.882812 1278.53125 " fill-opacity="1" fill-rule="nonzero"/><path fill="#19252c" d="M 2068.191406 1288.941406 C 2019.46875 1288.941406 1989.351562 1253.507812 1989.351562 1209.214844 L 1989.351562 1208.773438 C 1989.351562 1166.25 2020.578125 1128.601562 2067.082031 1128.601562 C 2090.558594 1128.601562 2105.839844 1134.804688 2120.011719 1145.210938 C 2122.007812 1146.761719 2123.554688 1149.199219 2123.554688 1152.300781 C 2123.554688 1157.171875 2119.570312 1161.15625 2114.917969 1161.15625 C 2112.925781 1161.15625 2111.15625 1160.273438 2109.382812 1158.945312 C 2098.308594 1150.527344 2085.90625 1144.769531 2066.417969 1144.769531 C 2032.09375 1144.769531 2007.511719 1173.78125 2007.511719 1208.328125 L 2007.511719 1208.773438 C 2007.511719 1245.757812 2031.207031 1273.21875 2068.855469 1273.21875 C 2086.574219 1273.21875 2102.960938 1266.351562 2113.589844 1257.714844 L 2113.589844 1219.179688 L 2071.957031 1219.179688 C 2067.746094 1219.179688 2064.203125 1215.636719 2064.203125 1211.429688 C 2064.203125 1207 2067.746094 1203.457031 2071.957031 1203.457031 L 2121.785156 1203.457031 C 2126.433594 1203.457031 2130.421875 1207.445312 2130.421875 1212.316406 L 2130.421875 1259.488281 C 2130.421875 1263.695312 2128.429688 1267.460938 2124.441406 1270.117188 C 2110.269531 1280.527344 2091.222656 1288.941406 2068.191406 1288.941406 Z M 2068.191406 1288.941406 " fill-opacity="1" fill-rule="nonzero"/><path fill="#19252c" d="M 1933.3125 1278.53125 L 1933.3125 1139.011719 C 1933.3125 1134.140625 1937.300781 1130.152344 1941.949219 1130.152344 C 1946.824219 1130.152344 1950.808594 1134.140625 1950.808594 1139.011719 L 1950.808594 1278.53125 C 1950.808594 1283.40625 1946.824219 1287.390625 1941.949219 1287.390625 C 1937.300781 1287.390625 1933.3125 1283.40625 1933.3125 1278.53125 Z M 1933.3125 1278.53125 " fill-opacity="1" fill-rule="nonzero"/><path fill="#19252c" d="M 1771.726562 1278.53125 L 1771.726562 1140.117188 C 1771.726562 1135.246094 1775.710938 1131.261719 1780.363281 1131.261719 L 1838.386719 1131.261719 C 1857.429688 1131.261719 1872.710938 1137.019531 1882.457031 1146.761719 C 1889.984375 1154.292969 1894.414062 1165.144531 1894.414062 1177.324219 L 1894.414062 1177.769531 C 1894.414062 1203.234375 1877.140625 1218.074219 1853 1222.722656 L 1891.535156 1272.332031 C 1893.308594 1274.324219 1894.414062 1276.316406 1894.414062 1278.753906 C 1894.414062 1283.40625 1889.984375 1287.390625 1885.554688 1287.390625 C 1882.011719 1287.390625 1879.355469 1285.398438 1877.363281 1282.742188 L 1833.734375 1226.046875 L 1789.21875 1226.046875 L 1789.21875 1278.53125 C 1789.21875 1283.40625 1785.234375 1287.390625 1780.363281 1287.390625 C 1775.710938 1287.390625 1771.726562 1283.40625 1771.726562 1278.53125 Z M 1789.21875 1210.324219 L 1836.835938 1210.324219 C 1860.089844 1210.324219 1876.699219 1198.363281 1876.699219 1178.433594 L 1876.699219 1177.988281 C 1876.699219 1158.945312 1862.082031 1147.425781 1837.054688 1147.425781 L 1789.21875 1147.425781 Z M 1789.21875 1210.324219 " fill-opacity="1" fill-rule="nonzero"/><path fill="#19252c" d="M 1565.601562 1286.285156 C 1560.953125 1286.285156 1556.964844 1282.296875 1556.964844 1277.425781 L 1556.964844 1140.117188 C 1556.964844 1135.246094 1560.953125 1131.261719 1565.601562 1131.261719 L 1661.9375 1131.261719 C 1666.367188 1131.261719 1669.910156 1134.804688 1669.910156 1139.234375 C 1669.910156 1143.664062 1666.367188 1147.207031 1661.9375 1147.207031 L 1574.460938 1147.207031 L 1574.460938 1200.136719 L 1651.972656 1200.136719 C 1656.402344 1200.136719 1659.945312 1203.898438 1659.945312 1208.109375 C 1659.945312 1212.535156 1656.402344 1216.082031 1651.972656 1216.082031 L 1574.460938 1216.082031 L 1574.460938 1270.339844 L 1663.046875 1270.339844 C 1667.476562 1270.339844 1671.019531 1273.882812 1671.019531 1278.3125 C 1671.019531 1282.742188 1667.476562 1286.285156 1663.046875 1286.285156 Z M 1565.601562 1286.285156 " fill-opacity="1" fill-rule="nonzero"/><path fill="#19252c" d="M 1388.707031 1278.53125 L 1388.707031 1139.011719 C 1388.707031 1134.140625 1392.691406 1130.152344 1397.34375 1130.152344 C 1402.214844 1130.152344 1406.203125 1134.140625 1406.203125 1139.011719 L 1406.203125 1200.136719 L 1495.671875 1200.136719 L 1495.671875 1139.011719 C 1495.671875 1134.140625 1499.660156 1130.152344 1504.53125 1130.152344 C 1509.179688 1130.152344 1513.167969 1134.140625 1513.167969 1139.011719 L 1513.167969 1278.53125 C 1513.167969 1283.40625 1509.179688 1287.390625 1504.53125 1287.390625 C 1499.660156 1287.390625 1495.671875 1283.40625 1495.671875 1278.53125 L 1495.671875 1216.523438 L 1406.203125 1216.523438 L 1406.203125 1278.53125 C 1406.203125 1283.40625 1402.214844 1287.390625 1397.34375 1287.390625 C 1392.691406 1287.390625 1388.707031 1283.40625 1388.707031 1278.53125 Z M 1388.707031 1278.53125 " fill-opacity="1" fill-rule="nonzero"/><path fill="#19252c" d="M 1286.070312 1278.53125 L 1286.070312 1147.425781 L 1241.113281 1147.425781 C 1236.683594 1147.425781 1232.921875 1143.882812 1232.921875 1139.453125 C 1232.921875 1135.027344 1236.683594 1131.261719 1241.113281 1131.261719 L 1348.746094 1131.261719 C 1353.175781 1131.261719 1356.9375 1135.027344 1356.9375 1139.453125 C 1356.9375 1143.882812 1353.175781 1147.425781 1348.746094 1147.425781 L 1303.789062 1147.425781 L 1303.789062 1278.53125 C 1303.789062 1283.40625 1299.800781 1287.390625 1294.929688 1287.390625 C 1290.058594 1287.390625 1286.070312 1283.40625 1286.070312 1278.53125 Z M 1286.070312 1278.53125 " fill-opacity="1" fill-rule="nonzero"/><path fill="#234088" d="M 219.027344 908.503906 L 43.96875 778.980469 C 23.222656 763.800781 28.785156 730.914062 53.074219 723.328125 L 945.585938 427.335938 C 966.324219 420.257812 988.085938 433.914062 988.085938 458.203125 L 988.085938 1411.429688 C 988.085938 1442.800781 952.667969 1450.386719 931.921875 1434.703125 L 752.308594 1301.636719 C 744.210938 1295.566406 739.152344 1286.453125 739.152344 1275.828125 L 742.1875 745.082031 L 248.371094 912.554688 C 238.757812 916.597656 227.625 914.578125 219.027344 908.503906 Z M 219.027344 908.503906 " fill-opacity="1" fill-rule="nonzero"/><path fill="#2f60da" d="M 540.1875 373.597656 C 544.5 289.039062 480.132812 217.03125 396.40625 212.757812 C 312.6875 208.492188 241.324219 273.578125 237.003906 358.136719 C 232.691406 442.695312 297.066406 514.703125 380.785156 518.976562 C 464.511719 523.242188 535.875 458.160156 540.1875 373.597656 Z M 540.1875 373.597656 " fill-opacity="1" fill-rule="nonzero"/></svg>